<svg xmlns="http://www.w3.org/2000/svg" width="886" height="90" viewBox="0 0 886 90"><defs><style>.a{fill:#1a332d;}</style></defs><path class="a" d="M0,92V63l18.588-2.02036c-5.62058-5.00522-13.34873-20.034-11.82079-33.9135,7.37676,1.59125,18.69,6.73037,23.41269,12.99545,0,0-1.09289-13.05673,7.729-18.89724,0,0,7.53927,9.81011,9.01076,28.02959,4.37179-4.62372,5.4252-3.91508,11.36227-1.52953,0,0-8.70494-14.77387-9.20038-22.08306,0,0,14.81051,5.29482,19.0361,12.53537,0,0,.09732-7.543,4.91237-9.97607,0,0,3.7038,9.25084,3.0356,18.71189l4.32825-2.69626a25.01173,25.01173,0,0,1,15.3259-20.74715s7.887,8.26151,1.60552,23.68258c0,0,11.7351-18.65093,25.26758-18.69325,0,0,3.70721,16.33895-2.64314,25.43913a12.11949,12.11949,0,0,1,9.70863-.99324c-5.55623-13.81489,5.75194-25.84325,5.75194-25.84325,3.43661,3.68961,4.66608,14.475,4.90746,21.34139,2.04194-9.69539,9.94573-17.29815,18.55186-20.12713,5.47386,12.5966-4.764,24.82137-4.764,24.82137l10.18412,3.8653c-1.94655-4.26973-3.61-9.473-2.32045-12.98277,0,0,12.26533,3.91417,16.20026,12.90645,0,0,.43067-5.82134,5.19066-8.02159a33.0485,33.0485,0,0,1,2.641,16.338c2.70375-5.05066,6.64529-7.03,11.913-5.71993,0,0-13.45618-10.08854-12.3825-24.39965,0,0,10.53817,3.18255,16.33429,9.28242,0,0,2.49032-17.02735,11.67929-22.26261,0,0,7.08407,7.11138,7.34529,25.38913,5.56093-2.27786,8.73012-1.29605,13.19155.72406,0,0-9.6715-13.62975-9.68153-20.95581,0,0,14.39093,6.32314,18.12739,13.83122,0,0,.63277-7.56544,5.59806-9.66982a50.264,50.264,0,0,1,6.28654,16.4743,24.9841,24.9841,0,0,1,16.66635-19.67205s7.32224,8.77266.03287,23.73768c0,0,12.94463-17.82149,26.44989-16.95521,0,0,2.61625,16.55148-4.3227,25.205,9.3629-3.05209,15.29859-.33923,15.29859-.33923a33.30938,33.30938,0,0,1,1.90557-25.39956c5.83133,6.82936,3.4827,21.62336,3.4827,21.62336,2.45576-12.80971,19.97364-20.4077,19.97364-20.4077,4.62724,12.936-6.5277,33.19514-6.5277,33.19514,13.15762-22.4825,21.669-10.23281,21.669-10.23281-6.28782-38.12355,22.37816-42.78589,22.37816-42.78589-1.10633,7.12362-7.03327,13.23955-7.03327,13.23955,12.17634-2.92119,18.60522,2.71071,18.60522,2.71071-4.32953,5.8201-15.86541,8.41775-15.86541,8.41775,8.71469,2.23527,19.28552,8.221,27.21363,16.202a18.39736,18.39736,0,0,1,13.095-6.80753c-6.05063-9.73154-.67639-25.63042-.67639-25.63042,14.54059,1.45186,25.56609,21.26355,25.56609,21.26355-5.43921-16.0245,3.74042-23.43717,3.74042-23.43717,15.27093,7.75552,14.7064,22.27512,14.7064,22.27512a48.128,48.128,0,0,1,9.2771-15.19559c4.96773,2.92656,4.46174,10.50612,4.46174,10.50612C469.66692,32.57188,486.004,28.786,486.004,28.786c-1.15427,7.23332-13.59791,19.04137-13.59791,19.04137,2.86582-1.42937,7.49056-.76428,10.69937.12262,9.17745-13.54344,21.52729-13.473,21.52729-13.473,3.856,6.9321.98512,11.30425.98512,11.30425,8.051-6.4269,18.23793-2.89068,18.23793-2.89068,1.53573,5.52083-2.08612,11.20058-5.02269,14.68788,3.97761-3.15371,9.24957-4.47522,15.29773-3.46049,0,0-8.8172-12.70043-8.69428-27.05182,7.37687,1.5913,15.01517,3.98008,19.738,10.24521,0,0,2.58188-10.30649,11.40356-16.147,0,0,7.53949,9.81011,9.011,28.02959,4.37179-4.62367,8.8505-5.1541,14.78767-2.7686,0,0-12.13045-13.5348-12.62578-20.84394,0,0,14.672,3.75144,18.8976,10.99193,0,0,.23582-5.99959,5.05065-8.43268,0,0,3.704,9.25084,3.0356,18.71189l4.32847-2.69626a25.01189,25.01189,0,0,1,15.3259-20.7472s7.88714,8.26156,1.60551,23.68263c0,0,11.735-18.65088,25.26758-18.69325,0,0,3.70722,16.339-2.64313,25.43913a12.11956,12.11956,0,0,1,9.70863-.99324c-5.55623-13.81489,5.75194-25.84325,5.75194-25.84325,3.4366,3.68961,4.66608,14.475,4.90745,21.34139,2.042-9.69533,9.94574-17.29815,18.55187-20.12708,5.47386,12.59655-4.76425,24.82138-4.76425,24.82138L682.95917,56.902c-1.94655-4.26973-3.61011-9.473-2.32045-12.98277,0,0,10.70655,3.4186,15.32184,11.20274.43665-.176.88119-.33762,1.3364-.47968a9.16014,9.16014,0,0,1,4.73267-5.8382,30.98916,30.98916,0,0,1,1.72866,4.99539,23.98757,23.98757,0,0,1,3.27121.31845s-8.817-12.70043-8.69406-27.05182c7.37687,1.5913,15.01517,3.98008,19.73781,10.24521,0,0,2.58188-10.30649,11.40377-16.147,0,0,7.53928,9.81011,9.011,28.02959,4.37157-4.62367,8.85049-5.1541,14.78745-2.7686,0,0-12.13024-13.5348-12.62557-20.84394,0,0,14.672,3.75144,18.8976,10.99193,0,0,.23582-5.99959,5.05066-8.43268,0,0,3.7038,9.25084,3.0356,18.71189l4.32825-2.69626a25.01184,25.01184,0,0,1,15.32611-20.7472s7.88693,8.26156,1.60552,23.68263c0,0,11.735-18.65088,25.26758-18.69325,0,0,3.707,16.339-2.64314,25.43913a12.119,12.119,0,0,1,9.70842-.99324c-5.556-13.81489,5.75194-25.84325,5.75194-25.84325,3.43682,3.68961,4.6663,14.475,4.90767,21.34139,2.04194-9.69533,9.94552-17.29815,18.55187-20.12708,5.47385,12.59655-4.76426,24.82138-4.76426,24.82138L855.858,56.902c-1.94655-4.26973-3.61011-9.473-2.32066-12.98277,0,0,15.12593,2.52718,19.06107,11.51946,0,0,.43046-5.82133,5.19044-8.02159a33.05,33.05,0,0,1,2.64122,16.33805L886,63V92Z"/></svg>