<svg xmlns="http://www.w3.org/2000/svg" width="886" height="90" viewBox="0 0 886 90"><defs><style>.a{fill:#1e6151;}</style></defs><path class="a" d="M876.38672,51.10024c1.156-9.40863-5.60962-17.89905-5.60962-17.89905-5.20068,2.41046-5.67114,8.788-5.67114,8.788C860.80664,32.13777,847.406,27.84963,847.406,27.84963c-1.40894,3.84515.40869,9.54553,2.5354,14.22314l-11.127-4.2345s11.18579-13.39282,5.20508-27.19293c-9.40283,3.09924-18.03808,11.42847-20.269,22.05017-.26367-7.52252-1.60694-19.33832-5.36182-23.38043,0,0-12.35473,13.17755-6.28418,28.31238a13.209,13.209,0,0,0-10.60742,1.08819C808.4353,28.746,804.385,10.8459,804.385,10.8459c-14.78516.04639-27.60645,20.47931-27.60645,20.47931,6.863-16.89447-1.75415-25.94537-1.75415-25.94537a27.40646,27.40646,0,0,0-16.74462,22.72949l-4.729,2.95386c.73023-10.365-3.3164-20.4997-3.3164-20.4997-5.26075,2.66559-5.51832,9.23834-5.51832,9.23834-4.61669-7.93231-20.647-12.04211-20.647-12.04211.54126,8.00751,13.79468,22.83545,13.79468,22.83545-6.48682-2.61346-11.38013-2.03235-16.15649,3.03308-1.60767-19.9602-9.845-30.70764-9.845-30.70764-9.63842,6.39856-12.45922,17.68976-12.45922,17.68976-5.15992-6.86365-13.50537-9.48072-21.565-11.22406-.13452,15.72253,9.49878,29.63641,9.49878,29.63641C680.729,37.911,674.969,39.35884,670.62329,42.814c3.20825-3.82049,7.16553-10.043,5.48779-16.09131,0,0-11.13012-3.87408-19.92627,3.16687,0,0,3.13648-4.78991-1.07641-12.38434,0,0-18.00092-.47808-32.30019,25.01673,1.8844-4.21218,5.764-15.51858,5.8749-20.83923-3.10372-2.32779-11.41725.11084-16.90015,4.27734,0,0,2.99194-8.82477.75024-16.39716,0,0-20.20791,12.45236-11.28955,33.14368-.60484-.40632-12.83178-12.20441-27.20752,12.42615,0,0,12.1875-22.19483,7.13184-36.36676,0,0-16.72071,5.90961-20.54493,19.71007,0,0-.99762-8.4798-4.65557-12.13775,0,0-7.56586,3.41242-2.509,18.92218,0,0-6.48511-2.972-16.7146.37165,7.5813-9.48035,4.7229-27.61316,4.7229-27.61316-14.75537-.949-28.8982,18.57513-28.8982,18.57513,7.96387-16.39477-.03589-26.00568-.03589-26.00568A27.36363,27.36363,0,0,0,494.32349,32.14a55.14709,55.14709,0,0,0-6.86817-18.04834c-5.425,2.30548-6.11645,10.59375-6.11645,10.59375C477.25659,16.46,461.53369,9.53267,461.53369,9.53267c.011,8.02612,10.57764,22.95807,10.57764,22.95807-4.87427-2.21314-8.33692-3.28876-14.4126-.79328-.2854-20.024-8.02515-27.81494-8.02515-27.81494C439.63379,9.618,436.91309,28.27223,436.91309,28.27223c-6.33252-6.68268-17.8462-10.16931-17.8462-10.16931C417.894,33.78139,432.5957,44.83376,432.5957,44.83376c-5.75537-1.43518-10.062.73327-13.01587,6.26648a36.28858,36.28858,0,0,0-2.88549-17.89905c-5.20044,2.41046-5.6709,8.788-5.6709,8.788-4.29932-9.85138-17.69995-14.13952-17.69995-14.13952-1.40894,3.84509.40844,9.54553,2.5354,14.22314l-11.127-4.2345s11.18555-13.39282,5.20508-27.19293c-9.40283,3.09924-18.03808,11.42847-20.269,22.05017-.26367-7.52252-1.60693-19.33832-5.36182-23.38043,0,0-12.355,13.17755-6.28442,28.31238a13.20855,13.20855,0,0,0-10.60718,1.08813c6.938-9.9696,2.8877-27.86969,2.8877-27.86969-14.78516.04639-27.60645,20.47925-27.60645,20.47925,6.863-16.89441-1.75391-25.94531-1.75391-25.94531a27.40634,27.40634,0,0,0-16.74462,22.72943l-4.729,2.95386c.73-10.365-3.3164-20.4997-3.3164-20.4997-5.26075,2.66559-5.36719,10.92926-5.36719,10.92926-4.6167-7.93231-20.7981-13.733-20.7981-13.733.54126,8.00751,10.052,24.19293,10.052,24.19293-6.48681-2.61346-7.63769-3.38983-12.41406,1.67566-1.60766-19.9602-9.84472-30.70764-9.84472-30.70764-9.63868,6.39856-8.44458,20.70282-8.44458,20.70282-5.15979-6.86371-17.52-12.49384-25.57972-14.23712-1.66931,15.20562,6.774,31.67029,12.91492,37.15368,0,0-8.05981-7.03308-18.85693-.90789,6.19165-7.67475,4.2727-21.04023,4.2727-21.04023-14.75537-.949-23.79516,11.81586-23.79516,11.81586,7.964-16.39477-4.68873-25.81934-4.68873-25.81934A27.36363,27.36363,0,0,0,175.39307,32.14a55.14709,55.14709,0,0,0-6.86817-18.04834c-5.425,2.30548-6.11645,10.59375-6.11645,10.59375-4.08228-8.22546-19.8053-15.15277-19.8053-15.15277.01111,8.02612,10.57776,22.95807,10.57776,22.95807-4.87427-2.21314-8.33692-3.28876-14.41272-.79328-.28528-20.024-8.025-27.81494-8.025-27.81494C120.70349,9.618,117.98279,28.27223,117.98279,28.27223c-6.33252-6.68268-17.84632-10.16931-17.84632-10.16931-1.17285,15.67847,13.52869,26.73084,13.52869,26.73084-5.75525-1.43518-10.06177.73327-13.01575,6.26648A36.2908,36.2908,0,0,0,97.764,33.20119c-5.20056,2.41046-5.671,8.788-5.671,8.788C87.7937,32.13777,74.39307,27.84963,74.39307,27.84963c-1.40894,3.84509.40857,9.54553,2.53527,14.22314l-11.12683-4.2345s11.18567-13.39282,5.20508-27.19293c-9.40283,3.09924-18.03808,11.42847-20.269,22.05017-.26367-7.52252-1.60693-19.33832-5.36182-23.38043,0,0-10.23193,10.91974-7.49048,24.29449a34.01063,34.01063,0,0,0-16.516-11.89593c-.57861,7.87744,1.91309,17.98706,1.91309,17.98706-6.33264-4.64887-16.11926-6.19849-16.11926-6.19849-.57569,11.81586,7.86767,20.145,7.86767,20.145C6.87793,56.255-2.31055,59.39247-5.20337,64.28279c-.35644.64649,0,27.71723,0,27.71723H893.8291V55.77779Z"/></svg>